Simulation
nRows=39
nColumns=15
endheader
time  TH_x TH_y TH_z SC_y  SC_z  SC_x  AC_y  AC_z  AC_x  GH_y  GH_z  GH_yy  EL_x  PS_y
0.0  0.000000  0.000000  0.000000  -25.489105794387346  -3.4802875684254246  5.742923753108314  62.638378946626325  -0.02985796234570039  -11.459156474615869  -16.48016588346645  15.26231818229645  41.77422397882048  24.978557458501374  120.000000
0.027999999999999997  0.000000  0.000000  0.000000  -25.961730278870107  -3.1067235478872433  5.733542047732354  62.39095642269679  0.24360980353977216  -11.459156474389786  -16.123784046039596  15.421259433123941  41.55287030819517  24.610043891571603  120.000000
0.055999999999999994  0.000000  0.000000  0.000000  -26.31677770979849  -2.8410379761978724  5.745203742672666  62.21806868029081  0.4660615373790375  -11.452725244409532  -15.771730464590394  15.555924535080878  41.363178709088444  24.287439145948984  120.000000
0.08399999999999999  0.000000  0.000000  0.000000  -26.55166577890974  -2.6728207086590614  5.787651597705216  62.11385861859465  0.6110361846735239  -11.457502786428504  -15.47263790195699  15.687873263638455  41.21832561325799  23.989925368857396  120.000000
0.11199999999999999  0.000000  0.000000  0.000000  -26.702016864638136  -2.555438627677621  5.857329751257122  62.05876935849949  0.6708795734495661  -11.459156469693786  -15.260140349910065  15.831989549838477  41.13034948851055  23.7155020605378  120.000000
0.13999999999999999  0.000000  0.000000  0.000000  -26.802233376024006  -2.4671436894702223  5.947759725041422  62.03394966103184  0.665981782483441  -11.45915645624224  -15.156164858865283  16.00468164090594  41.10358578475368  23.456819756026704  120.000000
0.16799999999999998  0.000000  0.000000  0.000000  -26.880229634807677  -2.3949148990856224  6.05300160254235  62.029963919690225  0.6247602698605089  -11.459156470299291  -15.173064730534122  16.223935309044347  41.13589978700585  23.20818125274732  120.000000
0.19599999999999998  0.000000  0.000000  0.000000  -26.95430398493603  -2.3316496997563263  6.167978482051496  62.04570913333242  0.5723061525115154  -11.45856413866688  -15.315488869855482  16.508740964703406  41.220707563592235  22.96308492294826  120.000000
0.22399999999999998  0.000000  0.000000  0.000000  -27.03502022543621  -2.277818127219846  6.290716350614674  62.08405431286122  0.5265295603428808  -11.459156471791182  -15.582851735656233  16.877145509184217  41.34726060362645  22.716645449507187  120.000000
0.252  0.000000  0.000000  0.000000  -27.129171223480064  -2.233259973079682  6.420689775516518  62.14997962860727  0.4965613577726114  -11.459156456638688  -15.970198924146182  17.344523183353537  41.5011280872733  22.466782140658612  120.000000
0.27999999999999997  0.000000  0.000000  0.000000  -27.243422673409857  -2.189698900960697  6.556220622046494  62.2493349472684  0.4826629747610304  -11.444933616388017  -16.47077566275657  17.923512264176864  41.664658818869924  22.211763065946545  120.000000
0.30799999999999994  0.000000  0.000000  0.000000  -27.384396710512025  -2.1342016260862477  6.694779671184659  62.386842990489185  0.4821369513767713  -11.397741003014891  -17.075746219452448  18.622113202804552  41.81661460772245  21.95090431734949  120.000000
0.33599999999999997  0.000000  0.000000  0.000000  -27.556274371134393  -2.057959246337968  6.835032524501299  62.56449293849558  0.49713755313348434  -11.307845251287665  -17.772471785536805  19.441486761741228  41.93304416940816  21.68651979704875  120.000000
0.364  0.000000  0.000000  0.000000  -27.76091359956705  -1.956105428850582  6.978229103888924  62.78053046548387  0.5341425427905451  -11.175136202497885  -18.545467550165853  20.376326945206024  41.988460790157774  21.42196180028531  120.000000
0.39199999999999996  0.000000  0.000000  0.000000  -27.999170395835765  -1.8258493992674882  7.128224326039337  63.031014049540936  0.6017580385434336  -11.005879257994458  -19.377777833238657  21.415726191004882  41.956744962088806  21.159842747436084  120.000000
0.41999999999999993  0.000000  0.000000  0.000000  -28.270894816368955  -1.6663316927533252  7.28998617680045  63.30983819769048  0.7098897514966881  -10.809839571964492  -20.251723345623812  22.545027413544982  41.81367663295683  20.900900047655593  120.000000
0.44799999999999995  0.000000  0.000000  0.000000  -28.574747369756768  -1.477891001437924  7.468362893049773  63.6107199698513  0.8685789102806803  -10.597588402791331  -21.149783827484594  23.74760978270767  41.53845600937903  20.643101794040124  120.000000
0.476  0.000000  0.000000  0.000000  -28.907968063346903  -1.2621556830416587  7.667771896192379  63.92770194241595  1.0868221782933039  -10.379017711979493  -22.0548842021408  25.00709880710013  41.11623189462058  20.381448836181587  120.000000
0.504  0.000000  0.000000  0.000000  -29.26651462444475  -1.022159474574861  7.892019570605055  64.256142447844  1.3716816350914822  -10.162382415388745  -22.950946428668974  26.308637272100643  40.53922497004088  20.10801744979143  120.000000
0.5319999999999999  0.000000  0.000000  0.000000  -29.645638432556414  -0.7619532433913165  8.144172533628293  64.59238934320346  1.7277137684160502  -9.95366020857386  -23.823042930191292  27.63959608667949  39.80813312874985  19.81319570199219  120.000000
0.5599999999999999  0.000000  0.000000  0.000000  -30.04028247810374  -0.4858919209605719  8.426216071295798  64.93362586230528  2.156612000046089  -9.756690920706934  -24.657526013602205  28.98961670931787  38.93259609470702  19.48717789794933  120.000000
0.588  0.000000  0.000000  0.000000  -30.445564405272385  -0.1980821435264703  8.739067666418324  65.27662335348155  2.657194092657671  -9.573280467919806  -25.441619972731008  30.35083014172907  37.932418771055254  19.12165364240943  120.000000
0.6159999999999999  0.000000  0.000000  0.000000  -30.856726180920855  0.09815603225838801  9.08244908857357  65.6168481312851  3.2252949917003004  -9.403604771690302  -26.163049923086312  31.718097892194148  36.83763042405777  18.71116125764806  120.000000
0.6439999999999999  0.000000  0.000000  0.000000  -31.269391650807417  0.4006247224223643  9.454888337088683  65.94795877915782  3.853822808520496  -9.246386956304471  -26.809913603507578  33.089008329693435  35.68776566879834  18.25373918026784  120.000000
0.6719999999999999  0.000000  0.000000  0.000000  -31.679988511876264  0.708072515832762  9.853706981630422  66.26259252371392  4.5330442825018356  -9.099035982444647  -27.371339649973272  34.463609692154485  34.5284848937811  17.750679669074334  120.000000
0.7  0.000000  0.000000  0.000000  -32.08636857355253  1.0197364440854533  10.275345241919485  66.55405891374399  5.251338423637326  -8.957534474155635  -27.838786903806568  35.843547508934165  33.40670652294803  17.205551042520632  120.000000
0.728  0.000000  0.000000  0.000000  -32.48834423982023  1.3348624969644425  10.715669065416884  66.81816826293343  5.9960351170843795  -8.816461093216091  -28.207499200446055  37.23110255961635  32.36492956749733  16.62328546577865  120.000000
0.7559999999999999  0.000000  0.000000  0.000000  -32.888011389331005  1.652383790275252  11.170420768059428  67.05470807891855  6.75442608714561  -8.669142556207614  -28.477911356947374  38.627895770459794  31.436116358712564  16.009486077004826  120.000000
0.7839999999999999  0.000000  0.000000  0.000000  -33.28941888009428  1.9708170693154663  11.635523343292865  67.26768744567687  7.514617410363904  -8.508090918241185  -28.65632244104531  40.03403916434224  30.640352742916807  15.370131148743804  120.000000
0.8119999999999999  0.000000  0.000000  0.000000  -33.697637705190125  2.288488783597804  12.107256975762708  67.46441537692756  8.26609929881011  -8.325860443935257  -28.75442406239273  41.447674929622885  29.984598258492404  14.711530950213552  120.000000
0.8399999999999999  0.000000  0.000000  0.000000  -34.11738249998255  2.604065689106541  12.582170294052917  67.65306317603772  8.99986021862155  -8.115828597406924  -28.78766186083639  42.86527947844265  29.465370638256882  14.040676681930016  120.000000
0.8679999999999999  0.000000  0.000000  0.000000  -34.551598654598635  2.9171908524812604  13.05688910452886  67.84054652083772  9.708538648486478  -7.872781564251971  -28.77329741066875  44.28217054294531  29.072180798921735  13.365696970233293  120.000000
0.8959999999999999  0.000000  0.000000  0.000000  -35.00007070611508  3.2287988165385126  13.528238355813508  68.03083837362263  10.386630622339899  -7.593140781702214  -28.728685318134183  45.693207908759945  28.790828244061583  12.695890095804353  120.000000
0.9239999999999999  0.000000  0.000000  0.000000  -35.45899006290911  3.541098523434543  13.993620879276346  68.22446614903618  11.030199597564252  -7.275269654050193  -28.670029202927847  47.09314258690701  28.605912289354876  12.04149925756659  120.000000
0.952  0.000000  0.000000  0.000000  -35.922153963231246  3.857267677560513  14.451315284603778  68.41862710983663  11.636169638869953  -6.919161152918285  -28.6114640139555  48.476690238002774  28.502674752022813  11.413424252933542  120.000000
0.9799999999999999  0.000000  0.000000  0.000000  -36.38241501721067  4.180557646399355  14.89984105149895  68.60858021919573  12.202634153401576  -6.526329611001505  -28.564502122867086  49.83833082092777  28.46742093288943  10.821945347251207  120.000000
1.008  0.000000  0.000000  0.000000  -36.833413738443156  4.513371215097609  15.337478062425795  68.78961802290922  12.72944835796136  -6.09909108389746  -28.537307482902406  51.172334530080825  28.48791993401589  10.275185182396221  120.000000
1.0359999999999998  0.000000  0.000000  0.000000  -37.271057511687765  4.856638505490744  15.762939578107556  68.95904701668539  13.21752371439302  -5.640448635983446  -28.534044057307316  52.472720822569705  28.553263270520254  9.777880004458986  120.000000
1.0639999999999998  0.000000  0.000000  0.000000  -37.69423104027232  5.209497011756899  16.176154580431216  69.11704212113668  13.667942377642738  -5.154108979239844  -28.554630505597487  53.73315111812698  28.654114618596704  9.330469599249422  120.000000
